<svg width="15" height="17" viewBox="0 0 15 17" fill="none" xmlns="http://www.w3.org/2000/svg">
<path fill-rule="evenodd" clip-rule="evenodd" d="M1.6 3.39999H12.8C13.6837 3.39999 14.4 4.11634 14.4 4.99999V15.4C14.4 16.2836 13.6837 17 12.8 17H1.6C0.716344 17 0 16.2836 0 15.4V4.99999C0 4.11634 0.716344 3.39999 1.6 3.39999ZM4 8.99999C3.55817 8.99999 3.2 9.35817 3.2 9.79999C3.2 10.2418 3.55817 10.6 4 10.6H10.4C10.8418 10.6 11.2 10.2418 11.2 9.79999C11.2 9.35817 10.8418 8.99999 10.4 8.99999H4ZM3.2 13C3.2 12.5582 3.55817 12.2 4 12.2H7.2C7.64183 12.2 8 12.5582 8 13C8 13.4418 7.64183 13.8 7.2 13.8H4C3.55817 13.8 3.2 13.4418 3.2 13Z" fill="#0095FF"/>
<path d="M9.59995 1.6C10.4836 1.6 11.2 2.31634 11.2 3.2V4C11.2 4.44183 10.8418 4.8 10.4 4.8H3.99995C3.55812 4.8 3.19995 4.44183 3.19995 4V3.2C3.19995 2.31634 3.9163 1.6 4.79995 1.6C4.79995 0.716344 5.5163 0 6.39995 0H7.99995C8.88361 0 9.59995 0.716344 9.59995 1.6Z" fill="#89C8F5"/>
</svg>
