<svg width="24" height="24" viewBox="0 0 24 24" fill="none" xmlns="http://www.w3.org/2000/svg">
<path fill-rule="evenodd" clip-rule="evenodd" d="M20 6.7445C20 5.9105 19.3272 5.23225 18.5 5.23225H16.913V4.50425C16.913 4.2255 16.6892 4 16.413 4C16.1368 4 15.913 4.2255 15.913 4.50425V5.23225H8.0645V4.50425C8.0645 4.2255 7.84075 4 7.5645 4C7.28825 4 7.0645 4.2255 7.0645 4.50425V5.23225H5.5C4.67275 5.23225 4 5.9105 4 6.7445V9.04675C4 9.06382 4.00433 9.07944 4.0087 9.09517C4.01136 9.10479 4.01404 9.11445 4.01575 9.1245C4.01404 9.13455 4.01136 9.14421 4.0087 9.15383C4.00433 9.16956 4 9.18518 4 9.20225L4.00025 9.20362L4.0005 9.205L4.00023 9.20681L4 9.20825V18.488C4 19.3217 4.67275 20 5.5 20H18.5C19.3272 20 20 19.3217 20 18.4878V9.20825L19.9998 9.20707L19.9998 9.20675L19.9995 9.20525L19.9998 9.20387L20 9.2025C20 9.18549 19.9957 9.16992 19.9913 9.15418C19.9887 9.14447 19.986 9.13471 19.9843 9.1245C19.986 9.11445 19.9886 9.10479 19.9913 9.09517L19.9913 9.09516C19.9957 9.07943 20 9.06381 20 9.04675V6.7445ZM5 9H19V10H5V9Z" fill="#1A9AFF"/>
<mask id="mask0_0_9673" style="mask-type:alpha" maskUnits="userSpaceOnUse" x="4" y="4" width="16" height="16">
<path fill-rule="evenodd" clip-rule="evenodd" d="M20 6.7445C20 5.9105 19.3272 5.23225 18.5 5.23225H16.913V4.50425C16.913 4.2255 16.6892 4 16.413 4C16.1368 4 15.913 4.2255 15.913 4.50425V5.23225H8.0645V4.50425C8.0645 4.2255 7.84075 4 7.5645 4C7.28825 4 7.0645 4.2255 7.0645 4.50425V5.23225H5.5C4.67275 5.23225 4 5.9105 4 6.7445V9.04675C4 9.06382 4.00433 9.07944 4.0087 9.09517C4.01136 9.10479 4.01404 9.11445 4.01575 9.1245C4.01404 9.13455 4.01136 9.14421 4.0087 9.15383C4.00433 9.16956 4 9.18518 4 9.20225L4.00025 9.20362L4.0005 9.205L4.00023 9.20681L4 9.20825V18.488C4 19.3217 4.67275 20 5.5 20H18.5C19.3272 20 20 19.3217 20 18.4878V9.20825L19.9998 9.20707L19.9998 9.20675L19.9995 9.20525L19.9998 9.20387L20 9.2025C20 9.18549 19.9957 9.16992 19.9913 9.15418C19.9887 9.14447 19.986 9.13471 19.9843 9.1245C19.986 9.11445 19.9886 9.10479 19.9913 9.09517L19.9913 9.09516C19.9957 9.07943 20 9.06381 20 9.04675V6.7445ZM5 9H19V10H5V9Z" fill="white"/>
</mask>
<g mask="url(#mask0_0_9673)">
</g>
</svg>
