<svg width="31" height="30" viewBox="0 0 31 30" fill="none" xmlns="http://www.w3.org/2000/svg">
<ellipse cx="15.3582" cy="15" rx="15.3582" ry="15" fill="#1492EC"/>
<path fill-rule="evenodd" clip-rule="evenodd" d="M7.33263 10.0719L15.0117 6.73857C15.2324 6.64281 15.4842 6.64281 15.7048 6.73857L23.3839 10.0719C24.0595 10.3652 24.0595 11.3017 23.3839 11.5949L15.7048 14.9283C15.4842 15.024 15.2324 15.024 15.0117 14.9283L7.33263 11.5949C6.65703 11.3017 6.65703 10.3652 7.33263 10.0719Z" fill="white"/>
<path opacity="0.48" fill-rule="evenodd" clip-rule="evenodd" d="M8.45798 13.75L15.0117 16.5948C15.2324 16.6906 15.4842 16.6906 15.7048 16.5948L22.2586 13.75L23.3839 14.2385C24.0595 14.5318 24.0595 15.4682 23.3839 15.7615L15.7048 19.0948C15.4842 19.1906 15.2324 19.1906 15.0117 19.0948L7.33263 15.7615C6.65703 15.4682 6.65703 14.5318 7.33263 14.2385L8.45798 13.75ZM8.45798 17.9167L15.0117 20.7615C15.2324 20.8573 15.4842 20.8573 15.7048 20.7615L22.2586 17.9167L23.3839 18.4052C24.0595 18.6984 24.0595 19.6349 23.3839 19.9282L15.7048 23.2615C15.4842 23.3573 15.2324 23.3573 15.0117 23.2615L7.33263 19.9282C6.65703 19.6349 6.65703 18.6984 7.33263 18.4052L8.45798 17.9167Z" fill="white"/>
</svg>
