<svg width="31" height="30" viewBox="0 0 31 30" fill="none" xmlns="http://www.w3.org/2000/svg">
<ellipse cx="15.3582" cy="15" rx="15.3582" ry="15" fill="#1492EC"/>
<path fill-rule="evenodd" clip-rule="evenodd" d="M11.4659 8.3335H22.6636C23.2582 8.3335 23.645 8.98542 23.3791 9.53951L20.1797 16.2062C20.0442 16.4885 19.7672 16.6668 19.4643 16.6668H11.4659C11.0241 16.6668 10.666 16.2937 10.666 15.8335V9.16683C10.666 8.70659 11.0241 8.3335 11.4659 8.3335Z" fill="white"/>
<path opacity="0.48" fill-rule="evenodd" clip-rule="evenodd" d="M20.2494 20.8334C20.3946 21.0786 20.4777 21.3632 20.4777 21.6667C20.4777 22.5872 19.7137 23.3334 18.7712 23.3334C17.8287 23.3334 17.0647 22.5872 17.0647 21.6667C17.0647 21.3632 17.1478 21.0786 17.293 20.8334H12.5703C12.7155 21.0786 12.7986 21.3632 12.7986 21.6667C12.7986 22.5872 12.0346 23.3334 11.0921 23.3334C10.1496 23.3334 9.38563 22.5872 9.38563 21.6667C9.38563 21.3358 9.4844 21.0273 9.65474 20.768C8.52252 20.5099 7.67916 19.5179 7.67916 18.3334C7.67916 17.2449 8.39145 16.3189 9.38563 15.9757V8.33341H7.67916C7.20793 8.33341 6.82593 7.96032 6.82593 7.50008C6.82593 7.03984 7.20793 6.66675 7.67916 6.66675H10.2389C10.7101 6.66675 11.0921 7.03984 11.0921 7.50008V15.8334H20.4777C20.9489 15.8334 21.3309 16.2065 21.3309 16.6667C21.3309 17.127 20.9489 17.5001 20.4777 17.5001H10.2389C9.76763 17.5001 9.38563 17.8732 9.38563 18.3334C9.38563 18.7937 9.76763 19.1667 10.2389 19.1667H20.4777C20.9489 19.1667 21.3309 19.5398 21.3309 20.0001C21.3309 20.4603 20.9489 20.8334 20.4777 20.8334H20.2494Z" fill="white"/>
</svg>
