<svg width="24" height="24" viewBox="0 0 24 24" fill="none" xmlns="http://www.w3.org/2000/svg">
<path fill-rule="evenodd" clip-rule="evenodd" d="M12 21C7.0293 21 3 16.9707 3 12C3 7.0293 7.0293 3 12 3C16.9707 3 21 7.0293 21 12C21 16.9707 16.9707 21 12 21ZM12 20.1C14.8939 20.1 17.5679 18.5561 19.0148 16.05C20.4617 13.5439 20.4617 10.4561 19.0148 7.95C17.5679 5.44385 14.8939 3.9 12 3.9C7.52649 3.9 3.9 7.52649 3.9 12C3.9 16.4735 7.52649 20.1 12 20.1ZM15.411 13.8837C15.5477 13.9747 15.6239 14.1329 15.61 14.2964C15.5961 14.46 15.4942 14.603 15.3441 14.6696C15.194 14.7362 15.0196 14.7158 14.889 14.6163L11.739 12.3663C11.6546 12.3062 11.5936 12.2187 11.5662 12.1188L10.2162 7.1688C10.1678 7.01191 10.2087 6.84113 10.3229 6.72318C10.4372 6.60524 10.6065 6.55885 10.7649 6.60215C10.9233 6.64545 11.0455 6.77156 11.0838 6.9312L12.3924 11.7273L15.4119 13.8837H15.411Z" fill="#8F9BB3"/>
</svg>
