<svg width="15" height="13" viewBox="0 0 15 13" fill="none" xmlns="http://www.w3.org/2000/svg">
<path fill-rule="evenodd" clip-rule="evenodd" d="M14.4 6.30005H11.5178L9.35889 10.0394L10.8 12.5354C10.8658 12.4974 10.9217 12.4425 10.961 12.3745L14.3411 6.5199C14.3804 6.4519 14.4 6.37596 14.4 6.30005Z" fill="#F0F3F8"/>
<path fill-rule="evenodd" clip-rule="evenodd" d="M9.35897 10.0393H5.04122L3.6001 12.5354C3.66585 12.5733 3.74143 12.5943 3.81998 12.5943H10.5802C10.6588 12.5943 10.7343 12.5733 10.8001 12.5354L9.35897 10.0393Z" fill="#E4E9F2"/>
<path fill-rule="evenodd" clip-rule="evenodd" d="M5.04112 10.0394L2.88222 6.30005H0C0 6.37596 0.0196312 6.4519 0.0589219 6.51993L3.43904 12.3745C3.47833 12.4425 3.53424 12.4975 3.6 12.5354L5.04112 10.0394Z" fill="#E4E9F2"/>
<path fill-rule="evenodd" clip-rule="evenodd" d="M5.04112 2.56067L3.6 0.0645752C3.53424 0.102544 3.4783 0.1575 3.43904 0.225535L0.0589219 6.08012C0.0196312 6.14813 0 6.22406 0 6.29997H2.88222L5.04112 2.56067Z" fill="#E4E9F2"/>
<path fill-rule="evenodd" clip-rule="evenodd" d="M5.04122 2.56075H9.35897L10.8001 0.0646592C10.7343 0.0266904 10.6588 0.0057373 10.5802 0.0057373H3.81998C3.74143 0.0057373 3.66585 0.0266904 3.6001 0.0646592L5.04122 2.56075Z" fill="#E4E9F2"/>
<path fill-rule="evenodd" clip-rule="evenodd" d="M9.35889 2.56067L11.5178 6.29997H14.4C14.4 6.22406 14.3804 6.14813 14.3411 6.08012L10.961 0.225535C10.9217 0.1575 10.8658 0.102544 10.8 0.0645752L9.35889 2.56067Z" fill="#F0F3F8"/>
<path fill-rule="evenodd" clip-rule="evenodd" d="M9.35901 2.56067H5.0412L2.88232 6.29997L5.0412 10.0393H9.35901L11.5179 6.29997L9.35901 2.56067Z" fill="#C5CEE0"/>
</svg>
