<svg width="24" height="24" viewBox="0 0 24 24" fill="none" xmlns="http://www.w3.org/2000/svg">
<path fill-rule="evenodd" clip-rule="evenodd" d="M17.6762 5H6.32379C4.49008 5 3.00088 6.40879 3.00088 8.1505L3 10.3237C2.99989 10.604 3.23695 10.8312 3.52941 10.8312C4.28047 10.8312 4.84378 11.3356 4.84378 12.0008C4.84378 12.6856 4.25978 13.2382 3.52941 13.2382C3.23703 13.2382 3 13.4653 3 13.7454V15.8495C3 17.5915 4.48857 19 6.3229 19H17.6771C19.5114 19 21 17.5915 21 15.8495V13.7454C21 13.4653 20.763 13.2382 20.4706 13.2382C19.7402 13.2382 19.1562 12.6856 19.1562 12.0008C19.1562 11.3158 19.7405 10.7626 20.4706 10.7626C20.7631 10.7626 21.0001 10.5354 21 10.2552L20.9992 8.1503C20.9992 6.4088 19.5099 5 17.6762 5ZM17.6762 6.01449L17.8381 6.01986C19.0143 6.09817 19.9403 7.02325 19.9403 8.1505L19.9412 9.80464L19.8131 9.8353C18.8215 10.105 18.0974 10.9699 18.0974 12.0008L18.1033 12.1621C18.1743 13.1211 18.8736 13.9103 19.813 14.1656L19.9412 14.1954V15.8495C19.9412 17.0283 18.9296 17.9855 17.6771 17.9855H14.6471V15.6449C14.6471 15.3688 14.4232 15.1449 14.1471 15.1449H14.0882C13.8121 15.1449 13.5882 15.3688 13.5882 15.6449V17.9855H6.3229L6.16096 17.9801C4.98434 17.9019 4.05882 16.9771 4.05882 15.8495V14.1954L4.18698 14.1656C5.17856 13.8961 5.9026 13.0317 5.9026 12.0008L5.89669 11.8406C5.82621 10.8904 5.13184 10.1402 4.18991 9.89884L4.05776 9.86855L4.0597 8.15069C4.0597 6.97199 5.07185 6.01449 6.32379 6.01449H13.5882V8.05072C13.5882 8.32687 13.8121 8.55072 14.0882 8.55072H14.1471C14.4232 8.55072 14.6471 8.32687 14.6471 8.05072V6.01449H17.6762ZM13.5882 10.5725C13.5882 10.2963 13.8121 10.0725 14.0882 10.0725H14.1471C14.4232 10.0725 14.6471 10.2963 14.6471 10.5725V12.6159C14.6471 12.8921 14.4232 13.1159 14.1471 13.1159H14.0882C13.8121 13.1159 13.5882 12.8921 13.5882 12.6159V10.5725Z" fill="#C5CEE0"/>
</svg>
