<svg width="24" height="24" viewBox="0 0 24 24" fill="none" xmlns="http://www.w3.org/2000/svg">
<path fill-rule="evenodd" clip-rule="evenodd" d="M14.8611 19C14.433 20.2 13.2861 21.0025 11.9993 21.0025C10.7125 21.0025 9.56557 20.2 9.1374 19H7.52848C6.67269 19.0001 5.87495 18.5721 5.40852 17.8626C4.94209 17.1531 4.8703 16.2584 5.21775 15.485L5.9317 13.894V11C5.93139 8.45671 7.5521 6.18933 9.97675 5.341V5C9.97675 3.89543 10.8823 3 11.9993 3C13.1163 3 14.0218 3.89543 14.0218 5V5.341C16.378 6.165 18.0668 8.388 18.0668 11V13.894L18.7818 15.484C19.1297 16.2575 19.0582 17.1525 18.5917 17.8623C18.1252 18.5721 17.3271 19.0003 16.4711 19H14.8611ZM13.7518 19H10.2468C10.6086 19.6187 11.2765 19.9996 11.9993 19.9996C12.722 19.9996 13.3899 19.6187 13.7518 19ZM13.0105 5.083V5C13.0105 4.44772 12.5578 4 11.9993 4C11.4408 4 10.988 4.44772 10.988 5V5.083C11.6575 4.97186 12.341 4.97186 13.0105 5.083ZM11.9993 6C9.20675 6 6.94296 8.23858 6.94296 11V14L6.89948 14.203L6.14103 15.891C5.93263 16.3549 5.9756 16.8915 6.25522 17.3171C6.53483 17.7428 7.01317 17.9997 7.52646 18H16.4711C16.9848 18.0002 17.4638 17.7433 17.7437 17.3173C18.0236 16.8913 18.0664 16.3541 17.8575 15.89L17.0991 14.203L17.0556 14V11C17.0556 8.23858 14.7918 6 11.9993 6Z" fill="#121924"/>
</svg>
