<svg width="24" height="24" viewBox="0 0 24 24" fill="none" xmlns="http://www.w3.org/2000/svg">
<path fill-rule="evenodd" clip-rule="evenodd" d="M6.55397 6.13976L7.70711 7.29289C8.33707 7.92286 7.8909 9 7 9H3C2.44772 9 2 8.55228 2 8V4C2 3.1091 3.07714 2.66293 3.70711 3.29289L5.13901 4.7248C9.05804 1.02492 15.2351 1.09296 19.0711 4.92893C22.9763 8.83418 22.9763 15.1658 19.0711 19.0711C15.1658 22.9763 8.83418 22.9763 4.92893 19.0711C3.02834 17.1705 1.99966 14.6333 2 11.9987C2.00007 11.4464 2.44784 10.9988 3.00013 10.9988C3.55241 10.9989 4.00007 11.4467 4 11.999C3.99973 14.1083 4.82155 16.1353 6.34315 17.6569C9.46734 20.781 14.5327 20.781 17.6569 17.6569C20.781 14.5327 20.781 9.46734 17.6569 6.34315C14.602 3.28829 9.69121 3.22049 6.55397 6.13976Z" fill="white"/>
<path opacity="0.48" fill-rule="evenodd" clip-rule="evenodd" d="M15.7071 14.2929C16.0976 14.6834 16.0976 15.3166 15.7071 15.7071C15.3166 16.0976 14.6834 16.0976 14.2929 15.7071L11.2929 12.7071C11.1054 12.5196 11 12.2652 11 12V7C11 6.44772 11.4477 6 12 6C12.5523 6 13 6.44772 13 7V11.5858L15.7071 14.2929Z" fill="white"/>
</svg>
