<svg width="24" height="24" viewBox="0 0 24 24" fill="none" xmlns="http://www.w3.org/2000/svg">
<path fill-rule="evenodd" clip-rule="evenodd" d="M15.078 12.94L18.535 14.512C19.4273 14.9179 20.0001 15.8078 20 16.788V17.5C20 18.8807 18.8807 20 17.5 20H6.5C5.11929 20 4 18.8807 4 17.5V16.788C3.99988 15.8078 4.57268 14.9179 5.465 14.512L8.922 12.941C7.24021 11.6273 6.57763 9.39092 7.27234 7.37308C7.96706 5.35523 9.86591 4.00073 12 4.00073C14.1341 4.00073 16.0329 5.35523 16.7277 7.37308C17.4224 9.39092 16.7598 11.6273 15.078 12.941V12.94ZM9.961 13.567L5.88 15.422C5.34408 15.6653 4.99995 16.1995 5 16.788V17.5C5 18.3285 5.67157 19 6.5 19H17.5C18.3284 19 19 18.3285 19 17.5V16.788C19.0001 16.1995 18.6559 15.6653 18.12 15.422L14.039 13.567C13.3975 13.8535 12.7026 14.0011 12 14C11.2974 14.0011 10.6025 13.8535 9.961 13.567ZM12 13C14.2091 13 16 11.2092 16 9.00003C16 6.79089 14.2091 5.00003 12 5.00003C9.79086 5.00003 8 6.79089 8 9.00003C8 11.2092 9.79086 13 12 13Z" fill="#121924"/>
</svg>
