<svg width="24" height="24" viewBox="0 0 24 24" fill="none" xmlns="http://www.w3.org/2000/svg">
<path fill-rule="evenodd" clip-rule="evenodd" d="M15.078 12.94L18.535 14.512C19.4273 14.9179 20.0001 15.8078 20 16.788V17.5C20 18.8807 18.8807 20 17.5 20H6.5C5.11929 20 4 18.8807 4 17.5V16.788C3.99988 15.8078 4.57268 14.9179 5.465 14.512L8.922 12.941C7.24021 11.6273 6.57763 9.39092 7.27234 7.37308C7.96706 5.35523 9.86591 4.00073 12 4.00073C14.1341 4.00073 16.0329 5.35523 16.7277 7.37308C17.4224 9.39092 16.7598 11.6273 15.078 12.941V12.94Z" fill="#1A9AFF"/>
</svg>
