<svg width="24" height="24" viewBox="0 0 24 24" fill="none" xmlns="http://www.w3.org/2000/svg">
<path fill-rule="evenodd" clip-rule="evenodd" d="M15.3336 7.2C15.2598 7.2 15.2 7.25981 15.2 7.3336V8.6664C15.2 8.74 15.26 8.8 15.3336 8.8H16.6664C16.7402 8.8 16.8 8.74019 16.8 8.6664V7.3336C16.8 7.29817 16.7859 7.26419 16.7609 7.23913C16.7358 7.21408 16.7018 7.2 16.6664 7.2H15.3336ZM15.2 16.8V16.4C15.2 16.1791 15.3791 16 15.6 16C15.8209 16 16 16.1791 16 16.4V16.8H16.8V16.4C16.8 16.1791 16.9791 16 17.2 16C17.4209 16 17.6 16.1791 17.6 16.4V17.2C17.6 17.4209 17.4209 17.6 17.2 17.6H14C13.7791 17.6 13.6 17.4209 13.6 17.2V16.4C13.6 16.1791 13.7791 16 14 16C14.2209 16 14.4 16.1791 14.4 16.4V16.8H15.2ZM12.8 11.2H13.2C13.4209 11.2 13.6 11.3791 13.6 11.6C13.6 11.8209 13.4209 12 13.2 12H11.6C11.3791 12 11.2 11.8209 11.2 11.6C11.2 11.3791 11.3791 11.2 11.6 11.2H12V10.4H10.8C10.5791 10.4 10.4 10.2209 10.4 10C10.4 9.77909 10.5791 9.6 10.8 9.6H13.2C13.4209 9.6 13.6 9.77909 13.6 10C13.6 10.2209 13.4209 10.4 13.2 10.4H12.8V11.2ZM16.8 12H16.4C16.1791 12 16 11.8209 16 11.6C16 11.3791 16.1791 11.2 16.4 11.2H16.8V10.8C16.8 10.5791 16.9791 10.4 17.2 10.4C17.4209 10.4 17.6 10.5791 17.6 10.8V12.4C17.6 12.6209 17.4209 12.8 17.2 12.8C16.9791 12.8 16.8 12.6209 16.8 12.4V12ZM12.8 13.6H12.4C12.1791 13.6 12 13.4209 12 13.2C12 12.9791 12.1791 12.8 12.4 12.8H13.2C13.4209 12.8 13.6 12.9791 13.6 13.2V14.8C13.6 15.0209 13.4209 15.2 13.2 15.2H10.8C10.5791 15.2 10.4 15.0209 10.4 14.8C10.4 14.5791 10.5791 14.4 10.8 14.4H12.8V13.6ZM15.3336 6.4H16.6664C17.1824 6.4 17.6 6.8176 17.6 7.3336V8.6664C17.6 9.1824 17.1824 9.6 16.6664 9.6H15.3336C14.818 9.6 14.4 9.18201 14.4 8.6664V7.3336C14.4 6.8176 14.8176 6.4 15.3336 6.4ZM7.3336 6.4H8.6664C9.1824 6.4 9.6 6.8176 9.6 7.3336V8.6664C9.6 9.1824 9.1824 9.6 8.6664 9.6H7.3336C6.81799 9.6 6.4 9.18201 6.4 8.6664V7.3336C6.4 6.8176 6.8176 6.4 7.3336 6.4ZM7.3336 7.2C7.29817 7.2 7.26419 7.21408 7.23913 7.23913C7.21408 7.26419 7.2 7.29817 7.2 7.3336V8.6664C7.2 8.74 7.26 8.8 7.3336 8.8H8.6664C8.74019 8.8 8.8 8.74019 8.8 8.6664V7.3336C8.8 7.25981 8.74019 7.2 8.6664 7.2H7.3336ZM7.3336 14.4H8.6664C9.1824 14.4 9.6 14.8176 9.6 15.3336V16.6664C9.6 17.1824 9.1824 17.6 8.6664 17.6H7.3336C7.08599 17.6 6.84853 17.5016 6.67345 17.3266C6.49836 17.1515 6.4 16.914 6.4 16.6664V15.3336C6.4 14.8176 6.8176 14.4 7.3336 14.4ZM7.3336 15.2C7.25981 15.2 7.2 15.2598 7.2 15.3336V16.6664C7.2 16.74 7.26 16.8 7.3336 16.8H8.6664C8.70183 16.8 8.73581 16.7859 8.76087 16.7609C8.78592 16.7358 8.8 16.7018 8.8 16.6664V15.3336C8.8 15.2598 8.74019 15.2 8.6664 15.2H7.3336ZM12.8 7.2H10.8C10.5791 7.2 10.4 7.02091 10.4 6.8C10.4 6.57909 10.5791 6.4 10.8 6.4H13.2C13.4209 6.4 13.6 6.57909 13.6 6.8V8.4C13.6 8.62091 13.4209 8.8 13.2 8.8C12.9791 8.8 12.8 8.62091 12.8 8.4V7.2ZM10.8 8.8C10.5791 8.8 10.4 8.62091 10.4 8.4C10.4 8.17909 10.5791 8 10.8 8H11.6C11.8209 8 12 8.17909 12 8.4C12 8.62091 11.8209 8.8 11.6 8.8H10.8ZM6.8 13.6C6.57909 13.6 6.4 13.4209 6.4 13.2C6.4 12.9791 6.57909 12.8 6.8 12.8H8.4C8.62091 12.8 8.8 12.9791 8.8 13.2C8.8 13.4209 8.62091 13.6 8.4 13.6H6.8ZM10 13.6C9.77909 13.6 9.6 13.4209 9.6 13.2C9.6 12.9791 9.77909 12.8 10 12.8H10.8C11.0209 12.8 11.2 12.9791 11.2 13.2C11.2 13.4209 11.0209 13.6 10.8 13.6H10ZM11.2 16.8V17.2C11.2 17.4209 11.0209 17.6 10.8 17.6C10.5791 17.6 10.4 17.4209 10.4 17.2V16.4C10.4 16.1791 10.5791 16 10.8 16H12.4C12.6209 16 12.8 16.1791 12.8 16.4C12.8 16.6209 12.6209 16.8 12.4 16.8H11.2ZM9.6 11.2H10C10.2209 11.2 10.4 11.3791 10.4 11.6C10.4 11.8209 10.2209 12 10 12H9.2C8.97909 12 8.8 11.8209 8.8 11.6V11.2H8.4C8.17909 11.2 8 11.0209 8 10.8C8 10.5791 8.17909 10.4 8.4 10.4H9.2C9.42091 10.4 9.6 10.5791 9.6 10.8V11.2ZM6.4 10.8C6.4 10.5791 6.57909 10.4 6.8 10.4C7.02091 10.4 7.2 10.5791 7.2 10.8V11.6C7.2 11.8209 7.02091 12 6.8 12C6.57909 12 6.4 11.8209 6.4 11.6V10.8ZM14.4 10.8C14.4 10.5791 14.5791 10.4 14.8 10.4C15.0209 10.4 15.2 10.5791 15.2 10.8V12.4C15.2 12.6209 15.0209 12.8 14.8 12.8C14.5791 12.8 14.4 12.6209 14.4 12.4V10.8ZM16 14.4V14C16 13.7791 16.1791 13.6 16.4 13.6H17.2C17.4209 13.6 17.6 13.7791 17.6 14C17.6 14.2209 17.4209 14.4 17.2 14.4H16.8V14.8C16.8 15.0209 16.6209 15.2 16.4 15.2H14.8C14.5791 15.2 14.4 15.0209 14.4 14.8V14C14.4 13.7791 14.5791 13.6 14.8 13.6C15.0209 13.6 15.2 13.7791 15.2 14V14.4H16ZM4.8 7.6C4.8 7.82091 4.62091 8 4.4 8C4.17909 8 4 7.82091 4 7.6V6C4 4.89543 4.89543 4 6 4H7.6C7.82091 4 8 4.17909 8 4.4C8 4.62091 7.82091 4.8 7.6 4.8H6C5.33726 4.8 4.8 5.33726 4.8 6V7.6ZM16.4 4.8C16.1791 4.8 16 4.62091 16 4.4C16 4.17909 16.1791 4 16.4 4H18C19.1046 4 20 4.89543 20 6V7.6C20 7.82091 19.8209 8 19.6 8C19.3791 8 19.2 7.82091 19.2 7.6V6C19.2 5.33726 18.6627 4.8 18 4.8H16.4ZM7.6 19.2C7.82091 19.2 8 19.3791 8 19.6C8 19.8209 7.82091 20 7.6 20H6C4.89543 20 4 19.1046 4 18V16.4C4 16.1791 4.17909 16 4.4 16C4.62091 16 4.8 16.1791 4.8 16.4V18C4.8 18.6627 5.33726 19.2 6 19.2H7.6ZM19.2 16.4C19.2 16.1791 19.3791 16 19.6 16C19.8209 16 20 16.1791 20 16.4V18C20 19.1046 19.1046 20 18 20H16.4C16.1791 20 16 19.8209 16 19.6C16 19.3791 16.1791 19.2 16.4 19.2H18C18.6627 19.2 19.2 18.6627 19.2 18V16.4Z" fill="white"/>
</svg>
