<svg width="24" height="24" viewBox="0 0 24 24" fill="none" xmlns="http://www.w3.org/2000/svg">
<path fill-rule="evenodd" clip-rule="evenodd" d="M12.4476 4.5C12.9883 4.49977 13.5065 4.71805 13.8843 5.10567C14.221 5.45124 14.4206 5.90521 14.4491 6.34154L14.4517 6.50409L14.4574 6.60755C14.4681 6.69989 14.4983 6.78909 14.5477 6.87219C14.6448 7.03727 14.8043 7.15756 14.9914 7.20603C15.148 7.24657 15.3127 7.23396 15.4789 7.16141L15.7233 7.03768C16.6109 6.63674 17.6562 6.93508 18.2015 7.73285L18.2834 7.86294L18.7287 8.63384L18.7486 8.67109L18.7683 8.71829L18.8172 8.81323C19.1961 9.65038 18.9528 10.6271 18.2741 11.1831L18.1498 11.2767L17.9319 11.415C17.8509 11.4734 17.7835 11.5482 17.7317 11.6384C17.6356 11.8029 17.6093 11.9983 17.6584 12.1819C17.6995 12.3355 17.7906 12.4706 17.9321 12.5763L18.163 12.7269C18.5398 12.9961 18.8122 13.3884 18.9323 13.8374C19.0548 14.2955 19.01 14.7802 18.8066 15.2106L18.723 15.3694L18.2399 16.1717L18.1512 16.3072C17.5847 17.0957 16.5361 17.36 15.6927 16.9626L15.4597 16.8415C15.3682 16.8006 15.2693 16.7782 15.1824 16.7757C14.9875 16.7748 14.8007 16.8514 14.6637 16.9881C14.5504 17.1011 14.479 17.2474 14.4583 17.4245L14.4429 17.6962C14.3453 18.6693 13.5591 19.425 12.5939 19.4947L12.4478 19.5H11.5506C10.4924 19.5 9.62392 18.6796 9.55152 17.6734L9.54099 17.4316C9.53024 17.3393 9.50008 17.2501 9.44716 17.161C9.3524 16.9958 9.1947 16.8746 9.00875 16.825C8.85332 16.7835 8.68934 16.7951 8.52105 16.8678L8.2694 16.9924C7.84477 17.1774 7.36863 17.2097 6.9222 17.0831C6.46644 16.954 6.0728 16.6681 5.81327 16.2862L5.72237 16.1386L5.25517 15.3332L5.18161 15.1892C4.77544 14.3016 5.07324 13.254 5.84879 12.7224L6.06114 12.5885C6.2522 12.4524 6.36561 12.2332 6.36561 12C6.36561 11.7745 6.2597 11.5633 6.06352 11.4157L5.83843 11.2681C5.04416 10.7002 4.77831 9.64294 5.20434 8.7588L5.27739 8.62073L5.74769 7.84991C6.27503 6.93694 7.41144 6.59564 8.32858 7.03273L8.55018 7.14969C8.63658 7.18925 8.73058 7.21028 8.81949 7.21123C9.19028 7.21127 9.49581 6.93892 9.54556 6.57068L9.55255 6.47673L9.56085 6.30999C9.60471 5.84829 9.8078 5.41576 10.1358 5.08698C10.4692 4.75281 10.9085 4.54893 11.3746 4.50775L11.5506 4.5L12.4476 4.5ZM12.4478 5.78049H11.5506C11.3563 5.78049 11.1703 5.85758 11.0341 5.99414C10.9397 6.08873 10.8743 6.20669 10.8451 6.31804L10.83 6.39984L10.8245 6.51493C10.8087 7.61255 9.91442 8.49184 8.81287 8.49169C8.59456 8.48943 8.37869 8.45045 8.15883 8.36933L7.99309 8.3005L7.85015 8.22524C7.52758 8.04086 7.12336 8.12719 6.89731 8.42117L6.84027 8.50644L6.36996 9.27728C6.20086 9.57002 6.25984 9.9349 6.47985 10.1481L6.55061 10.2073L6.63363 10.2619C7.25481 10.6196 7.63831 11.2821 7.63831 12C7.63831 12.5958 7.37386 13.1564 6.90437 13.5481L6.77128 13.6507L6.63413 13.7379C6.34087 13.9071 6.2101 14.2508 6.29295 14.541L6.32426 14.6262L6.36909 14.7147L6.82716 15.503C6.92109 15.6721 7.07938 15.7974 7.26739 15.8506C7.39902 15.888 7.53775 15.8878 7.65338 15.8582L7.73529 15.8306L7.8196 15.7904C8.27778 15.5236 8.82326 15.4506 9.33516 15.5874C9.84789 15.7242 10.2851 16.0601 10.5444 16.5122C10.6565 16.7008 10.7358 16.9065 10.7808 17.1379L10.8081 17.3164L10.8181 17.4944C10.8181 17.8629 11.0964 18.1689 11.4584 18.2138L11.5506 18.2195H12.4478C12.7916 18.2195 13.0822 17.9841 13.1581 17.6886L13.1743 17.5983L13.1803 17.5039C13.1778 16.9693 13.3894 16.4561 13.7676 16.0788C14.1448 15.7026 14.6564 15.4926 15.2024 15.4955C15.4159 15.5012 15.6268 15.5405 15.8418 15.6185L16.0039 15.6844L16.1561 15.7625C16.4544 15.9339 16.8271 15.8739 17.0428 15.6532L17.1026 15.5822L17.1626 15.4904L17.6299 14.7135C17.726 14.5489 17.7524 14.3535 17.7033 14.17C17.6689 14.0415 17.5994 13.9255 17.5166 13.8435L17.4524 13.7887L17.3656 13.7321C16.9041 13.4673 16.567 13.0292 16.4294 12.5146C16.2916 11.9992 16.3654 11.4502 16.6321 10.9937C16.7441 10.7986 16.8883 10.6246 17.0722 10.4689L17.2178 10.3556L17.3616 10.2637C17.6547 10.0926 17.7855 9.74837 17.7033 9.45694L17.6721 9.37132L17.6126 9.25489L17.6038 9.23415L17.183 8.50638C17.0311 8.24341 16.7355 8.10818 16.4613 8.14068L16.3598 8.1608L16.2718 8.19275L16.1876 8.23447C15.731 8.50277 15.1867 8.57882 14.6742 8.44609C14.161 8.31318 13.7213 7.9817 13.454 7.52697C13.3419 7.33846 13.2626 7.13277 13.2176 6.9014L13.1903 6.72293L13.1805 6.52625C13.1862 6.33161 13.1124 6.14265 12.9755 6.00217C12.8605 5.88418 12.7092 5.80883 12.5466 5.78705L12.4478 5.78049ZM12.0025 9.4782C13.3945 9.4782 14.5251 10.606 14.5251 12C14.5251 13.394 13.3945 14.5218 12.0025 14.5218C10.6105 14.5218 9.47989 13.394 9.47989 12C9.47989 10.606 10.6105 9.4782 12.0025 9.4782ZM12.0025 10.7587C11.311 10.7587 10.7526 11.3157 10.7526 12C10.7526 12.6843 11.311 13.2413 12.0025 13.2413C12.694 13.2413 13.2524 12.6843 13.2524 12C13.2524 11.3157 12.694 10.7587 12.0025 10.7587Z" fill="#121924"/>
</svg>
