<svg width="24" height="24" viewBox="0 0 24 24" fill="none" xmlns="http://www.w3.org/2000/svg">
<path fill-rule="evenodd" clip-rule="evenodd" d="M6.32379 5H17.6762C19.5099 5 20.9992 6.4088 20.9992 8.1503L21 10.2552C21.0001 10.5354 20.7631 10.7626 20.4706 10.7626C19.7405 10.7626 19.1562 11.3158 19.1562 12.0008C19.1562 12.6856 19.7402 13.2382 20.4706 13.2382C20.763 13.2382 21 13.4653 21 13.7454V15.8495C21 17.5915 19.5114 19 17.6771 19H6.3229C4.48857 19 3 17.5915 3 15.8495V13.7454C3 13.4653 3.23703 13.2382 3.52941 13.2382C4.25978 13.2382 4.84378 12.6856 4.84378 12.0008C4.84378 11.3356 4.28047 10.8312 3.52941 10.8312C3.23695 10.8312 2.99989 10.604 3 10.3237L3.00088 8.1505C3.00088 6.40879 4.49008 5 6.32379 5ZM14.0882 5.95813C13.8121 5.95813 13.5882 6.18199 13.5882 6.45813V8.33253C13.5882 8.60867 13.8121 8.83253 14.0882 8.83253H14.1471C14.4232 8.83253 14.6471 8.60867 14.6471 8.33253V6.45813C14.6471 6.18199 14.4232 5.95813 14.1471 5.95813H14.0882ZM13.5882 10.8543C13.5882 10.5781 13.8121 10.3543 14.0882 10.3543H14.1471C14.4232 10.3543 14.6471 10.5781 14.6471 10.8543V12.7287C14.6471 13.0048 14.4232 13.2287 14.1471 13.2287H14.0882C13.8121 13.2287 13.5882 13.0048 13.5882 12.7287V10.8543ZM14.0882 15.1449C13.8121 15.1449 13.5882 15.3688 13.5882 15.6449V17.5193C13.5882 17.7955 13.8121 18.0193 14.0882 18.0193H14.1471C14.4232 18.0193 14.6471 17.7955 14.6471 17.5193V15.6449C14.6471 15.3688 14.4232 15.1449 14.1471 15.1449H14.0882Z" fill="white"/>
</svg>
